<?xml version="1.0" encoding="UTF-8" standalone="no"?>
<!-- Created with Inkscape (http://www.inkscape.org/) -->

<svg
   width="216.22023mm"
   height="216.22023mm"
   viewBox="0 0 216.22023 216.22023"
   version="1.1"
   id="svg5"
   xml:space="preserve"
   xmlns:xlink="http://www.w3.org/1999/xlink"
   xmlns="http://www.w3.org/2000/svg"
   xmlns:svg="http://www.w3.org/2000/svg"><defs
     id="defs2"><linearGradient
       id="linearGradient1954"><stop
         style="stop-color:#efff00;stop-opacity:1;"
         offset="0"
         id="stop1950" /><stop
         style="stop-color:#77e07f;stop-opacity:1;"
         offset="0.5"
         id="stop1964" /><stop
         style="stop-color:#00c2ff;stop-opacity:1;"
         offset="1"
         id="stop1952" /></linearGradient><linearGradient
       xlink:href="#linearGradient1954"
       id="linearGradient1956"
       x1="18.111458"
       y1="97.698914"
       x2="187.82053"
       y2="97.698914"
       gradientUnits="userSpaceOnUse" /><filter
       style="color-interpolation-filters:sRGB"
       id="filter1960"
       x="-0.13703211"
       y="-0.13703211"
       width="1.2740642"
       height="1.2740642"><feGaussianBlur
         stdDeviation="9.6898292"
         id="feGaussianBlur1962" /></filter></defs><g
     id="layer1"
     transform="translate(5.1441327,10.411207)"><circle
       style="opacity:0.729984;fill:url(#linearGradient1956);fill-opacity:1;fill-rule:nonzero;stroke-width:0.264583;filter:url(#filter1960)"
       id="path1170"
       cx="102.96599"
       cy="97.698914"
       r="84.85453" /><path
       style="fill:#000000;stroke-width:0.264583"
       d="m 120.72719,146.82418 c -17.31698,-0.0967 -41.665267,-0.19881 -54.107298,-0.22691 l -22.621876,-0.0511 -5.269619,-9.55924 c -2.89829,-5.25759 -5.269618,-9.70324 -5.269618,-9.87922 0,-0.17598 13.086954,-24.14558 29.082118,-53.2657 l 29.082121,-52.9458 10.961012,0.0652 10.96102,0.0651 29.46407,53.07557 29.46408,53.07549 -5.10838,9.89527 -5.10838,9.89526 -5.02192,0.016 c -2.76205,0.009 -19.19035,-0.0632 -36.50733,-0.15988 z M 63.982694,109.79415 C 95.42612,52.8026 92.314639,58.31567 92.721922,58.87266 c 0.195829,0.26782 2.941468,5.25652 6.101415,11.08602 3.159943,5.82949 9.105923,16.790328 13.213273,24.357363 l 7.46792,13.758307 10.36427,0.0693 c 9.33627,0.0624 10.34841,0.0279 10.20452,-0.34701 -0.21315,-0.55552 -48.039063,-85.65871 -48.273931,-85.90047 -0.167545,-0.17245 -57.987832,104.7484 -57.987832,105.22489 0,0.45408 10.198276,18.59725 10.361914,18.43428 0.0965,-0.0961 9.01065,-16.18864 19.809223,-35.76119 z m 107.941376,17.04764 c 0,-0.0827 -13.18043,-23.89515 -29.28984,-52.91659 L 113.34439,21.1588 H 102.66071 91.977038 l 1.196171,2.18281 c 0.657891,1.20055 11.670641,20.8161 24.472771,43.59011 l 23.2766,41.40722 -27.29561,0.13229 -27.295601,0.13229 -5.077198,8.99583 c -2.79246,4.94771 -5.084419,9.08513 -5.09324,9.19428 -0.0088,0.10914 21.534276,0.19843 47.873549,0.19843 26.33927,0 47.88959,-0.0676 47.88959,-0.15027 z M 118.9633,107.94835 c -0.20041,-0.58695 -15.70956,-29.09291 -15.83303,-29.10127 -0.0739,-0.005 -2.9263,4.96175 -6.3386,11.03722 -3.412287,6.075454 -7.125034,12.68341 -8.250548,14.68433 l -2.046383,3.63802 h 16.278381 c 10.4719,0 16.24692,-0.0921 16.19018,-0.2583 z"
       id="path381" /><text
       xml:space="preserve"
       style="font-style:normal;font-variant:normal;font-weight:normal;font-stretch:normal;font-size:0.0899945px;font-family:Hack;-inkscape-font-specification:'Hack, Normal';font-variant-ligatures:normal;font-variant-caps:normal;font-variant-numeric:normal;font-variant-east-asian:normal;fill:#000000;stroke-width:0.00749952;image-rendering:auto"
       x="102.85673"
       y="97.722954"
       id="text629"><tspan
         id="tspan627"
         style="font-style:normal;font-variant:normal;font-weight:normal;font-stretch:normal;font-size:0.0899945px;font-family:Hack;-inkscape-font-specification:'Hack, Normal';font-variant-ligatures:normal;font-variant-caps:normal;font-variant-numeric:normal;font-variant-east-asian:normal;fill:#000000;stroke-width:0.00749952"
         x="102.85673"
         y="97.722954">Onyx</tspan></text></g></svg>
